<?xml version="1.0" standalone="no"?>
<!DOCTYPE svg PUBLIC "-//W3C//DTD SVG 20010904//EN"
 "http://www.w3.org/TR/2001/REC-SVG-20010904/DTD/svg10.dtd">
<svg version="1.0" xmlns="http://www.w3.org/2000/svg"
 width="1000.000000pt" height="1000.000000pt" viewBox="0 0 1000.000000 1000.000000"
 preserveAspectRatio="xMidYMid meet">
<metadata>
Created by potrace 1.11, written by Peter Selinger 2001-2013
</metadata>
<g transform="translate(0.000000,1000.000000) scale(0.100000,-0.100000)"
fill="#000000" stroke="none">
<path d="M4927 9994 c-1 -1 -74 -4 -162 -8 -201 -8 -245 -12 -426 -37 -747
-100 -1442 -358 -2069 -766 -470 -307 -922 -729 -1261 -1178 -228 -302 -442
-661 -569 -955 -18 -41 -43 -98 -56 -127 -31 -68 -150 -397 -169 -465 -8 -29
-26 -93 -40 -143 -25 -90 -89 -369 -99 -435 -3 -19 -12 -78 -20 -130 -39 -244
-49 -394 -50 -715 -1 -282 6 -475 18 -555 2 -14 7 -52 11 -85 19 -180 94 -565
141 -725 181 -616 400 -1076 742 -1560 578 -816 1425 -1467 2347 -1802 182
-66 504 -163 605 -182 14 -2 69 -14 123 -25 54 -12 126 -25 160 -31 34 -5 73
-12 86 -15 13 -2 49 -7 80 -10 31 -4 67 -8 81 -11 14 -2 52 -6 85 -9 33 -3
101 -10 150 -14 92 -9 730 -7 775 2 14 3 57 8 97 12 39 3 82 8 95 10 13 2 48
6 78 10 30 4 64 8 75 10 11 2 38 6 61 10 194 28 558 117 739 180 22 8 81 28
130 45 91 32 110 39 155 58 14 6 70 29 125 52 309 128 679 339 982 559 75 55
281 216 293 230 3 3 43 40 90 81 102 90 298 285 397 395 594 662 1011 1495
1177 2350 73 374 90 557 90 975 1 351 -6 450 -45 725 -110 764 -401 1500 -847
2138 -83 118 -267 357 -291 377 -3 3 -31 34 -61 70 -108 129 -364 377 -556
540 -446 380 -1076 726 -1664 915 -430 138 -945 226 -1360 234 -69 1 -151 3
-183 4 -32 1 -59 2 -60 1z"/>
</g>
</svg>
